<svg width="4184" height="1023" viewBox="0 0 4184 1023" fill="none" xmlns="http://www.w3.org/2000/svg">
<rect width="1023" height="1023" rx="80" fill="#333333"/>
<path d="M163 516.189L281.934 319L400 516.189L281.934 587.973L163 516.189Z" fill="#E4E4E4"/>
<path d="M281.934 609.595L163 537.811L281.934 704.73L400 537.811L281.934 609.595Z" fill="#E4E4E4"/>
<path d="M465.737 632V589.65H515.087V433.9H465.737V391.9H622.887V433.9H573.537V589.65H622.887V632H465.737ZM667.9 632V391.9H759.6C773.367 391.9 786.083 393.767 797.75 397.5C809.65 401.233 819.917 406.833 828.55 414.3C837.183 421.767 843.95 431.1 848.85 442.3C853.75 453.267 856.2 465.983 856.2 480.45V543.45C856.2 557.683 853.75 570.4 848.85 581.6C843.95 592.567 837.183 601.783 828.55 609.25C819.917 616.717 809.65 622.433 797.75 626.4C786.083 630.133 773.367 632 759.6 632H667.9ZM726.7 587.2H754.7C763.333 587.2 770.8 585.917 777.1 583.35C783.4 580.783 788.183 576.583 791.45 570.75C794.95 564.917 796.7 556.867 796.7 546.6V476.95C796.7 466.683 794.95 458.633 791.45 452.8C788.183 446.733 783.4 442.417 777.1 439.85C770.8 437.283 763.333 436 754.7 436H726.7V587.2Z" fill="#E4E4E4"/>
<path d="M1246.27 419V165.18H1422.39L1415.73 212.17H1306.95V266.19H1408.7V312.07H1306.95V370.16H1416.84L1423.13 419H1246.27ZM1587.64 422.7C1562.23 422.7 1542.37 417.397 1528.07 406.79C1514.01 396.183 1506.98 378.053 1506.98 352.4V272.48H1457.77V229.93H1509.2L1529.55 169.62H1565.07V229.93H1643.88V272.48H1565.07V346.85C1565.07 353.51 1566.42 359.307 1569.14 364.24C1571.85 368.927 1576.17 372.627 1582.09 375.34C1588.25 377.807 1596.39 379.04 1606.51 379.04C1613.66 379.04 1620.57 378.177 1627.23 376.45C1633.89 374.723 1639.44 372.627 1643.88 370.16V411.97C1637.22 415.423 1628.71 418.013 1618.35 419.74C1607.99 421.713 1597.75 422.7 1587.64 422.7ZM1688.87 419V152.6H1746.96V253.24C1753.37 244.36 1761.02 237.7 1769.9 233.26C1779.03 228.573 1789.51 226.23 1801.35 226.23C1813.44 226.23 1824.04 228.697 1833.17 233.63C1842.3 238.563 1849.33 245.717 1854.26 255.09C1859.44 264.217 1862.03 275.44 1862.03 288.76V419H1803.94V299.86C1803.94 289.747 1801.47 281.977 1796.54 276.55C1791.61 271.123 1784.82 268.41 1776.19 268.41C1770.52 268.41 1765.46 269.767 1761.02 272.48C1756.58 275.193 1753.13 278.893 1750.66 283.58C1748.19 288.267 1746.96 293.693 1746.96 299.86V419H1688.87ZM1997.68 422.7C1975.72 422.7 1957.59 419 1943.29 411.6C1929.23 403.953 1918.74 393.1 1911.84 379.04C1905.18 364.98 1901.85 348.453 1901.85 329.46V319.47C1901.85 299.737 1905.79 282.963 1913.69 269.15C1921.83 255.09 1933.17 244.483 1947.73 237.33C1962.53 229.93 1979.92 226.23 1999.9 226.23C2018.4 226.23 2034.31 229.683 2047.63 236.59C2061.19 243.25 2071.55 252.747 2078.71 265.08C2086.11 277.167 2089.81 291.72 2089.81 308.74V335.38H1963.64V345.37C1963.64 358.937 1966.97 369.05 1973.63 375.71C1980.29 382.37 1989.04 385.7 1999.9 385.7C2011.98 385.7 2020.99 382.863 2026.91 377.19C2032.83 371.27 2035.79 362.267 2035.79 350.18H2089.81C2089.81 365.473 2085.98 378.547 2078.34 389.4C2070.94 400.253 2060.33 408.517 2046.52 414.19C2032.95 419.863 2016.67 422.7 1997.68 422.7ZM1963.64 303.19H2032.83V298.38C2032.83 291.473 2031.35 285.43 2028.39 280.25C2025.43 274.823 2021.36 270.63 2016.18 267.67C2011.24 264.71 2005.45 263.23 1998.79 263.23C1991.63 263.23 1985.47 264.957 1980.29 268.41C1975.11 271.617 1971.04 276.057 1968.08 281.73C1965.12 287.403 1963.64 293.57 1963.64 300.23V303.19ZM2164.4 419V272.48H2125.18V229.93H2211.76L2214.35 253.98C2218.3 246.087 2224.59 239.55 2233.22 234.37C2241.86 228.943 2252.59 226.23 2265.41 226.23C2282.43 226.23 2295.63 231.163 2305 241.03C2314.62 250.897 2319.43 263.97 2319.43 280.25C2319.43 284.197 2319.31 288.143 2319.06 292.09C2319.06 295.79 2318.69 299.737 2317.95 303.93H2269.85V293.94C2269.85 289.5 2268.87 285.43 2266.89 281.73C2265.17 277.783 2262.45 274.7 2258.75 272.48C2255.3 270.26 2250.98 269.15 2245.8 269.15C2240.62 269.15 2236.18 270.507 2232.48 273.22C2228.78 275.933 2225.95 279.51 2223.97 283.95C2222 288.143 2221.01 292.83 2221.01 298.01V419H2164.4ZM2124.44 419V377.19H2292.42V419H2124.44ZM2441.39 422.7C2419.43 422.7 2401.3 419 2387 411.6C2372.94 403.953 2362.45 393.1 2355.55 379.04C2348.89 364.98 2345.56 348.453 2345.56 329.46V319.47C2345.56 299.737 2349.5 282.963 2357.4 269.15C2365.54 255.09 2376.88 244.483 2391.44 237.33C2406.24 229.93 2423.63 226.23 2443.61 226.23C2462.11 226.23 2478.02 229.683 2491.34 236.59C2504.9 243.25 2515.26 252.747 2522.42 265.08C2529.82 277.167 2533.52 291.72 2533.52 308.74V335.38H2407.35V345.37C2407.35 358.937 2410.68 369.05 2417.34 375.71C2424 382.37 2432.75 385.7 2443.61 385.7C2455.69 385.7 2464.7 382.863 2470.62 377.19C2476.54 371.27 2479.5 362.267 2479.5 350.18H2533.52C2533.52 365.473 2529.69 378.547 2522.05 389.4C2514.65 400.253 2504.04 408.517 2490.23 414.19C2476.66 419.863 2460.38 422.7 2441.39 422.7ZM2407.35 303.19H2476.54V298.38C2476.54 291.473 2475.06 285.43 2472.1 280.25C2469.14 274.823 2465.07 270.63 2459.89 267.67C2454.95 264.71 2449.16 263.23 2442.5 263.23C2435.34 263.23 2429.18 264.957 2424 268.41C2418.82 271.617 2414.75 276.057 2411.79 281.73C2408.83 287.403 2407.35 293.57 2407.35 300.23V303.19ZM2637.71 422.7C2617.73 422.7 2601.82 417.273 2589.98 406.42C2578.39 395.567 2572.59 379.287 2572.59 357.58V229.93H2631.05V348.7C2631.05 359.553 2633.64 367.57 2638.82 372.75C2644.25 377.683 2651.16 380.15 2659.54 380.15C2665.46 380.15 2670.64 378.917 2675.08 376.45C2679.77 373.737 2683.35 369.913 2685.81 364.98C2688.53 360.047 2689.88 354.25 2689.88 347.59V229.93H2747.97V374.97C2747.97 378.67 2748.71 381.383 2750.19 383.11C2751.92 384.59 2754.02 385.33 2756.48 385.33C2758.21 385.33 2759.94 385.207 2761.66 384.96C2763.39 384.467 2765.24 383.603 2767.21 382.37V415.3C2764.01 417.52 2759.2 419.247 2752.78 420.48C2746.62 421.96 2740.7 422.7 2735.02 422.7C2724.91 422.7 2717.14 421.59 2711.71 419.37C2706.29 417.15 2702.46 414.19 2700.24 410.49C2698.27 406.543 2696.79 402.227 2695.8 397.54C2692.6 402.227 2688.53 406.42 2683.59 410.12C2678.91 413.82 2672.86 416.78 2665.46 419C2658.06 421.467 2648.81 422.7 2637.71 422.7ZM2787.79 419V229.93H2818.87L2823.68 249.54C2828.12 242.14 2833.79 236.467 2840.7 232.52C2847.6 228.327 2855 226.23 2862.9 226.23C2872.02 226.23 2879.67 228.45 2885.84 232.89C2892.25 237.083 2896.81 242.757 2899.53 249.91C2904.95 241.77 2911 235.85 2917.66 232.15C2924.32 228.203 2931.96 226.23 2940.6 226.23C2954.41 226.23 2964.65 230.67 2971.31 239.55C2977.97 248.183 2981.3 259.777 2981.3 274.33V419H2934.68V286.91C2934.68 275.81 2930.36 270.26 2921.73 270.26C2917.78 270.26 2914.45 271.74 2911.74 274.7C2909.02 277.66 2907.67 281.73 2907.67 286.91V419H2861.79V286.91C2861.79 275.81 2857.35 270.26 2848.47 270.26C2844.27 270.26 2840.82 271.74 2838.11 274.7C2835.64 277.66 2834.41 281.73 2834.41 286.91V419H2787.79ZM1248.12 859V814.23H1300.29V649.58H1248.12V605.18H1414.25V649.58H1362.08V814.23H1414.25V859H1248.12ZM1530.29 862.7C1516.47 862.7 1503.89 859.493 1492.55 853.08C1481.2 846.42 1472.2 836.183 1465.54 822.37C1458.88 808.31 1455.55 790.427 1455.55 768.72V764.65C1455.55 742.943 1459 724.813 1465.91 710.26C1472.81 695.46 1482.06 684.483 1493.66 677.33C1505.25 669.93 1518.08 666.23 1532.14 666.23C1543.24 666.23 1552.73 667.833 1560.63 671.04C1568.77 674.247 1575.3 678.563 1580.24 683.99V592.6H1638.33V859H1590.97L1586.16 837.54C1580.73 845.187 1573.58 851.353 1564.7 856.04C1555.82 860.48 1544.35 862.7 1530.29 862.7ZM1547.31 824.96C1556.68 824.96 1564.45 821.507 1570.62 814.6C1577.03 807.693 1580.24 797.58 1580.24 784.26V744.3C1580.24 730.98 1577.03 720.867 1570.62 713.96C1564.45 707.053 1556.68 703.6 1547.31 703.6C1537.93 703.6 1530.04 707.177 1523.63 714.33C1517.46 721.237 1514.38 731.227 1514.38 744.3V784.26C1514.38 797.58 1517.46 807.693 1523.63 814.6C1530.04 821.507 1537.93 824.96 1547.31 824.96ZM1775.82 862.7C1753.87 862.7 1735.74 859 1721.43 851.6C1707.37 843.953 1696.89 833.1 1689.98 819.04C1683.32 804.98 1679.99 788.453 1679.99 769.46V759.47C1679.99 739.737 1683.94 722.963 1691.83 709.15C1699.97 695.09 1711.32 684.483 1725.87 677.33C1740.67 669.93 1758.06 666.23 1778.04 666.23C1796.54 666.23 1812.45 669.683 1825.77 676.59C1839.34 683.25 1849.7 692.747 1856.85 705.08C1864.25 717.167 1867.95 731.72 1867.95 748.74V775.38H1741.78V785.37C1741.78 798.937 1745.11 809.05 1751.77 815.71C1758.43 822.37 1767.19 825.7 1778.04 825.7C1790.13 825.7 1799.13 822.863 1805.05 817.19C1810.97 811.27 1813.93 802.267 1813.93 790.18H1867.95C1867.95 805.473 1864.13 818.547 1856.48 829.4C1849.08 840.253 1838.47 848.517 1824.66 854.19C1811.09 859.863 1794.81 862.7 1775.82 862.7ZM1741.78 743.19H1810.97V738.38C1810.97 731.473 1809.49 725.43 1806.53 720.25C1803.57 714.823 1799.5 710.63 1794.32 707.67C1789.39 704.71 1783.59 703.23 1776.93 703.23C1769.78 703.23 1763.61 704.957 1758.43 708.41C1753.25 711.617 1749.18 716.057 1746.22 721.73C1743.26 727.403 1741.78 733.57 1741.78 740.23V743.19ZM1910.73 859V669.93H1958.09L1962.53 691.39C1968.45 682.757 1976.09 676.467 1985.47 672.52C1994.84 668.327 2005.82 666.23 2018.4 666.23C2038.62 666.23 2054.53 671.78 2066.13 682.88C2077.97 693.98 2083.89 709.52 2083.89 729.5V859H2025.8V741.71C2025.8 730.61 2023.33 722.347 2018.4 716.92C2013.46 711.247 2006.68 708.41 1998.05 708.41C1992.13 708.41 1986.95 709.89 1982.51 712.85C1978.07 715.81 1974.61 719.88 1972.15 725.06C1969.93 729.993 1968.82 735.79 1968.82 742.45V859H1910.73ZM2253.2 862.7C2227.8 862.7 2207.94 857.397 2193.63 846.79C2179.57 836.183 2172.54 818.053 2172.54 792.4V712.48H2123.33V669.93H2174.76L2195.11 609.62H2230.63V669.93H2309.44V712.48H2230.63V786.85C2230.63 793.51 2231.99 799.307 2234.7 804.24C2237.42 808.927 2241.73 812.627 2247.65 815.34C2253.82 817.807 2261.96 819.04 2272.07 819.04C2279.23 819.04 2286.13 818.177 2292.79 816.45C2299.45 814.723 2305 812.627 2309.44 810.16V851.97C2302.78 855.423 2294.27 858.013 2283.91 859.74C2273.55 861.713 2263.32 862.7 2253.2 862.7ZM2423.26 859V712.48H2360.36V669.93H2480.98V859H2423.26ZM2360.36 859V817.19H2537.96V859H2360.36ZM2425.85 634.04V588.9H2471.73V634.04H2425.85ZM2696.91 862.7C2671.51 862.7 2651.65 857.397 2637.34 846.79C2623.28 836.183 2616.25 818.053 2616.25 792.4V712.48H2567.04V669.93H2618.47L2638.82 609.62H2674.34V669.93H2753.15V712.48H2674.34V786.85C2674.34 793.51 2675.7 799.307 2678.41 804.24C2681.13 808.927 2685.44 812.627 2691.36 815.34C2697.53 817.807 2705.67 819.04 2715.78 819.04C2722.94 819.04 2729.84 818.177 2736.5 816.45C2743.16 814.723 2748.71 812.627 2753.15 810.16V851.97C2746.49 855.423 2737.98 858.013 2727.62 859.74C2717.26 861.713 2707.03 862.7 2696.91 862.7ZM2831.45 927.82C2824.79 927.82 2818.62 927.327 2812.95 926.34C2807.52 925.6 2802.71 924.367 2798.52 922.64V883.42C2801.23 884.653 2805.05 885.763 2809.99 886.75C2814.92 887.983 2819.73 888.6 2824.42 888.6C2831.57 888.6 2837.12 886.997 2841.07 883.79C2845.01 880.583 2848.1 876.39 2850.32 871.21C2852.54 866.03 2854.76 860.357 2856.98 854.19L2785.57 669.93H2847.73L2886.58 785.37H2889.17L2925.06 669.93H2982.41L2915.81 847.9C2910.13 862.947 2903.47 876.513 2895.83 888.6C2888.18 900.687 2879.05 910.183 2868.45 917.09C2858.09 924.243 2845.75 927.82 2831.45 927.82ZM3236.68 859V605.18H3295.88V729.5L3369.88 605.18H3432.04L3363.22 728.76L3436.48 859H3369.88L3315.86 765.39L3295.88 796.84V859H3236.68ZM3532.53 859V712.48H3469.63V669.93H3590.25V859H3532.53ZM3469.63 859V817.19H3647.23V859H3469.63ZM3535.12 634.04V588.9H3581V634.04H3535.12ZM3806.19 862.7C3780.78 862.7 3760.93 857.397 3746.62 846.79C3732.56 836.183 3725.53 818.053 3725.53 792.4V712.48H3676.32V669.93H3727.75L3748.1 609.62H3783.62V669.93H3862.43V712.48H3783.62V786.85C3783.62 793.51 3784.98 799.307 3787.69 804.24C3790.4 808.927 3794.72 812.627 3800.64 815.34C3806.81 817.807 3814.95 819.04 3825.06 819.04C3832.21 819.04 3839.12 818.177 3845.78 816.45C3852.44 814.723 3857.99 812.627 3862.43 810.16V851.97C3855.77 855.423 3847.26 858.013 3836.9 859.74C3826.54 861.713 3816.3 862.7 3806.19 862.7Z" fill="#EEEEEE"/>
</svg>
