<svg width="919" height="919" viewBox="0 0 919 919" fill="none" xmlns="http://www.w3.org/2000/svg">
<rect width="919" height="919" rx="80" fill="#333333"/>
<path d="M157 464.076L255.359 301L353 464.076L255.359 523.442L157 464.076Z" fill="#E4E4E4"/>
<path d="M255.359 541.323L157 481.957L255.359 620L353 481.957L255.359 541.323Z" fill="#E4E4E4"/>
<path d="M423.917 563V526.7H466.217V393.2H423.917V357.2H558.617V393.2H516.317V526.7H558.617V563H423.917ZM597.2 563V357.2H675.8C687.6 357.2 698.5 358.8 708.5 362C718.7 365.2 727.5 370 734.9 376.4C742.3 382.8 748.1 390.8 752.3 400.4C756.5 409.8 758.6 420.7 758.6 433.1V487.1C758.6 499.3 756.5 510.2 752.3 519.8C748.1 529.2 742.3 537.1 734.9 543.5C727.5 549.9 718.7 554.8 708.5 558.2C698.5 561.4 687.6 563 675.8 563H597.2ZM647.6 524.6H671.6C679 524.6 685.4 523.5 690.8 521.3C696.2 519.1 700.3 515.5 703.1 510.5C706.1 505.5 707.6 498.6 707.6 489.8V430.1C707.6 421.3 706.1 414.4 703.1 409.4C700.3 404.2 696.2 400.5 690.8 398.3C685.4 396.1 679 395 671.6 395H647.6V524.6Z" fill="#E4E4E4"/>
</svg>
